<?xml version="1.0" standalone="no"?><!DOCTYPE svg PUBLIC "-//W3C//DTD SVG 1.1//EN" "http://www.w3.org/Graphics/SVG/1.1/DTD/svg11.dtd"><svg t="1618825660489" class="icon" viewBox="0 0 1026 1024" version="1.1" xmlns="http://www.w3.org/2000/svg" p-id="3903" xmlns:xlink="http://www.w3.org/1999/xlink" width="200.390625" height="200"><defs><style type="text/css"></style></defs><path d="M1004.040851 911.618377L696.116855 603.67373a58.255891 58.255891 0 0 0-5.844175-5.121397l-0.24781 0.247809a379.788761 379.788761 0 1 0-91.049352 91.111305l-1.03254 1.03254a55.984304 55.984304 0 0 0 5.142048 5.844175l307.923996 307.923996a65.834733 65.834733 0 0 0 93.031829-93.093781zM626.936693 441.854104h-0.351063a41.301589 41.301589 0 0 1-40.950526-41.632001 220.963501 220.963501 0 0 0-218.898421-222.532962 41.301589 41.301589 0 0 1 0.330413-82.603177h0.330412a303.566679 303.566679 0 0 1 300.840774 305.817615 41.301589 41.301589 0 0 1-41.239636 40.950525z" p-id="3904"></path></svg>