<svg width="95" height="95" viewBox="0 0 95 95" fill="none" xmlns="http://www.w3.org/2000/svg">
<path d="M82.0823 41.0119H79.7822V35.6421C79.7822 28.5861 76.3839 21.2188 70.452 15.4339C64.2175 9.35506 56.2363 6 47.9957 6C39.755 6 31.7738 9.34641 25.5393 15.4339C19.6074 21.2188 16.2091 28.5774 16.2091 35.6421V39.6284C16.2091 40.398 15.5865 41.0119 14.8256 41.0119H12.0758C9.28282 41.0119 7 43.4677 7 46.4942V56.7323C7 59.7501 9.27417 62.2145 12.0758 62.2145H16.2178C17.7483 62.2145 18.9935 60.9693 18.9935 59.4388V35.6421C18.9935 20.5098 34.5928 8.77572 48.0043 8.77572C64.3473 8.77572 77.0152 23.2163 77.0152 35.6421V48.3792C77.0152 49.1488 77.6377 49.7627 78.3987 49.7627C79.1683 49.7627 79.7822 49.1401 79.7822 48.3792V43.779H82.0823C83.3535 43.779 84.3825 44.9896 84.3825 46.4855V56.7236C84.3825 58.2195 83.3535 59.4301 82.0823 59.4301H79.7822V56.3777C79.7822 55.7724 79.3066 55.2882 78.71 55.2882H78.122C77.534 55.2882 77.0497 55.7724 77.0497 56.3777V60.0614C77.0497 71.415 68.4027 80.7019 57.4469 81.4801C56.8243 79.3875 54.8787 77.857 52.5873 77.857H47.0618C44.2688 77.857 41.9946 80.1312 41.9946 82.9242C41.9946 85.7172 44.2688 88 47.0618 88H52.5873C54.922 88 56.8848 86.4089 57.4728 84.2645C69.2155 83.5122 78.6495 74.0869 79.6698 62.2058H82.065C84.858 62.2058 87.1408 59.7501 87.1408 56.7236V46.4855C87.1581 43.4763 84.884 41.0119 82.0823 41.0119ZM16.2091 58.0553C16.2091 58.8248 15.5865 59.4388 14.8256 59.4388H12.0758C10.8047 59.4388 9.7757 58.2282 9.7757 56.7323V46.4942C9.7757 44.9982 10.8047 43.7876 12.0758 43.7876H14.8256C15.5952 43.7876 16.2091 44.4102 16.2091 45.1712V58.0553ZM52.6046 85.2329H47.0791C45.808 85.2329 44.7789 84.2039 44.7789 82.9328C44.7789 81.6617 45.808 80.6327 47.0791 80.6327H52.6046C53.8757 80.6327 54.9047 81.6617 54.9047 82.9328C54.9047 84.2039 53.867 85.2329 52.6046 85.2329Z" fill="#C01818"/>
<path d="M39.2818 75.582C30.8768 71.1893 26.3544 62.0234 26.3544 55.296V47.9287C26.3544 41.357 32.3209 32.4419 37.3016 29.5019C37.4745 29.3981 37.6129 29.2684 37.7253 29.1127C44.0982 38.8666 59.0489 48.119 69.8058 50.5401C69.7107 50.7304 69.6502 50.9379 69.6502 51.1627V55.296C69.607 60.9252 66.9609 68.5779 61.963 72.9792C61.4268 73.4462 61.3577 74.259 61.7901 74.8297C62.2743 75.4782 63.2168 75.5733 63.8221 75.0372C69.4167 70.0738 72.3827 61.5651 72.4259 55.3047V51.1627C72.4259 51.1108 72.4173 51.059 72.4086 51.0071C72.6853 51.0417 72.9707 51.0762 73.2387 51.1022C74.0429 51.1714 74.726 50.5228 74.726 49.7187C74.726 48.9923 74.1726 48.4043 73.4463 48.3438C67.4884 47.8509 58.8068 44.124 51.3012 38.7542C43.2594 32.9953 38.2095 26.6656 37.5005 21.5293C37.4053 20.8289 36.8346 20.3014 36.1256 20.3014C35.2954 20.3014 34.6296 21.0278 34.7421 21.8492C34.9669 23.5267 35.5635 25.2302 36.4369 26.9337C36.2553 26.9596 36.0737 27.0202 35.9008 27.1153C30.1246 30.5482 23.5787 40.2155 23.5787 47.9374V55.3047C23.5787 63.0351 28.5075 73.0916 37.9415 78.0205C38.6505 78.3923 39.5325 78.0983 39.8611 77.3719C40.1637 76.7061 39.9216 75.9192 39.2818 75.582Z" fill="#C01818"/>
</svg>
